PathFileType	4	(X/Y/Z)	RBDS023\RBDS023runT45.trc
DataRate	CameraRate	NumFrames	NumMarkers	Units	OrigDataRate	OrigDataStartFrame	OrigNumFrames
150.000000	150.000000	4	33	mm	150.000000	1125	4500
Frame#	Time	L.ASIS			L.Heel.Bottom			L.Heel.Lateral			L.Heel.Top			L.Iliac.Crest			L.MT1			L.MT5			L.PSIS			L.Shank.Bottom.Lateral			L.Shank.Bottom.Medial			L.Shank.Top.Lateral			L.Shank.Top.Medial			L.Thigh.Bottom.Lateral			L.Thigh.Bottom.Medial			L.Thigh.Top.Lateral			L.Thigh.Top.Medial			R.ASIS			R.ASY			R.Heel.Bottom			R.Heel.Lateral			R.Heel.Top			R.Iliac.Crest			R.MT1			R.MT5			R.PSIS			R.Shank.Bottom.Lateral			R.Shank.Bottom.Medial			R.Shank.Top.Lateral			R.Shank.Top.Medial			R.Thigh.Bottom.Lateral			R.Thigh.Bottom.Medial			R.Thigh.Top.Lateral			R.Thigh.Top.Medial			
		X1	Y1	Z1	X2	Y2	Z2	X3	Y3	Z3	X4	Y4	Z4	X5	Y5	Z5	X6	Y6	Z6	X7	Y7	Z7	X8	Y8	Z8	X9	Y9	Z9	X10	Y10	Z10	X11	Y11	Z11	X12	Y12	Z12	X13	Y13	Z13	X14	Y14	Z14	X15	Y15	Z15	X16	Y16	Z16	X17	Y17	Z17	X18	Y18	Z18	X19	Y19	Z19	X20	Y20	Z20	X21	Y21	Z21	X22	Y22	Z22	X23	Y23	Z23	X24	Y24	Z24	X25	Y25	Z25	X26	Y26	Z26	X27	Y27	Z27	X28	Y28	Z28	X29	Y29	Z29	X30	Y30	Z30	X31	Y31	Z31	X32	Y32	Z32	X33	Y33	Z33	

1126	7.500000000000001	2414.548429334246	1045.073527034692	941.9323346438962	2471.64758736043	79.04913973445159	1008.345698747403	2493.726733167532	103.1967538439848	967.18531215837	2476.699398150107	125.6952682545701	1010.67257723201	2340.373875335138	1136.053178430634	885.6175781048901	2695.015996396589	110.9580537949095	1028.825652984178	2654.137812841716	103.3350328170036	919.6824279642375	2238.171139510103	1104.439108843899	982.8861307335598	2535.787820638479	226.3538628557209	944.5368990374483	2494.738798312338	225.2316717657819	974.4658052479047	2523.481024252042	303.9098461345592	924.5862928951657	2482.621326470138	307.4852498890638	958.0764095264771	2475.227345117295	734.8556671658351	880.9000342438346	2422.338350782133	698.182438454863	910.1307234855407	2406.82916806807	820.5415156960253	870.3490261366297	2356.030799773657	785.9714337694289	898.9360266237499	2402.090781593829	1032.741076852018	1149.796875942224	1809.96616221339	152.4012872213417	1074.439235691691	1695.203139918014	314.5584350004111	1047.476491674169	1714.594904559551	293.1783954383858	1094.640517438609	1742.067270636727	321.5484366424973	1055.3696220846	2367.757283035509	1135.737714219675	1184.235310132269	1783.032826288226	108.4020586254557	1020.192810545815	1751.89578049165	130.769545465223	1128.260163086186	2237.586807397705	1109.544448895143	1095.412192150049	1831.246015540354	323.7731466080253	1128.45734681199	1801.449359832041	354.7654828585406	1093.154806641588	1874.177305106024	390.1818247355803	1148.502083684245	1844.144465916334	419.3395069010614	1114.164867007545	2131.769487930278	699.2895777692652	1182.867963272584	2087.275674379975	724.1941178552842	1129.958832792918	2167.957447222167	802.126748484004	1196.475114685493	2127.675084293046	825.2413761654574	1144.677825240677	
1127	7.506666666666667	2414.82896313086	1046.522243507824	941.6435288433339	2504.222203381638	69.54636935786287	1008.207946887932	2524.936578375175	95.08667432169045	967.2503996440679	2505.453399301313	116.3801143675959	1010.218331432106	2340.114581600378	1137.720344388468	885.7393990871918	2723.769310643752	119.5782034547663	1031.769547985846	2685.356989627805	107.7029504638358	922.034563618832	2238.927367403041	1106.300601966488	983.3246527798782	2556.987532199476	221.9417569490901	944.5017235474966	2515.80711414607	217.776821921857	973.9312984241898	2539.142473904913	298.1935760876416	924.0065187983971	2497.783306009376	298.7818479319009	956.9485530576347	2471.337441508383	731.2010078260157	879.880922828641	2417.965266916203	695.9495137460425	909.8325877853231	2404.854234036458	818.4174417404161	869.2871198773759	2353.550456542804	785.1948572585815	898.4767947237061	2403.188611299934	1034.827090116034	1149.652949393602	1792.527978992477	167.661702280429	1074.859835865818	1684.035530419234	333.5724910770454	1045.889885662979	1701.833959981149	311.6424032875899	1093.402091573887	1731.000131207809	338.8292710216091	1054.463400892824	2368.937198098542	1138.803851327953	1183.49709901505	1765.058586551582	124.2168169718803	1020.262387783058	1732.949755306583	147.5426545729916	1127.613273678915	2238.772481400271	1112.006727375528	1095.842111743242	1819.770252571275	337.6672670895799	1128.077282763317	1791.30174492917	369.7926919217739	1092.729811439543	1865.158739121946	402.403180579108	1148.104741270204	1836.455275588193	432.6486331663086	1113.71388002714	2131.232801021932	702.4537244707028	1183.417001946425	2086.521313901112	727.9395777823353	1130.977537283146	2168.214056520054	804.957040543739	1197.419918378919	2127.794430202169	828.6223174034808	1145.95246270652	
1128	7.513333333333334	2414.947699322245	1047.37282956902	941.4757732093325	2534.499983709689	62.32741921500259	1007.906551429856	2553.893127719457	89.12982593175967	967.1777955421443	2532.07433410703	109.093476240886	1009.588571858754	2339.88236585493	1138.556880097402	885.837476567469	2749.166632339701	129.3540502509928	1034.656896701561	2713.598668931995	113.5602813860241	924.3190130825428	2239.436512981667	1107.385260528729	983.5770213681323	2576.269217319848	218.9211466635078	944.3998053349897	2535.077323427801	211.8710105689073	973.29395994139	2553.306836869375	293.6279841249803	923.4055490903705	2511.593838472563	291.3550799416919	955.779947410666	2467.361505336335	726.9907957299291	878.6651579364461	2413.643119539085	693.3218258700812	909.6808460691317	2402.818098648602	815.6707812850545	867.9440037077077	2351.127547773633	783.9336007161057	898.0159284092479	2404.066717725823	1036.447081623227	1149.570679550067	1775.717531377121	183.9182484213844	1075.339609585651	1673.270151390991	353.077767985509	1044.3518418985	1689.520836468586	330.6875416101603	1092.194069024941	1720.231383906357	356.701624264687	1053.595846547408	2369.757908478446	1141.251179689581	1182.845151427772	1747.743007661391	141.0921643982519	1020.296336143856	1714.703993614193	165.4849199405172	1127.070769863052	2239.612782936117	1113.874998913334	1096.093821373671	1808.994843627245	352.142311995051	1127.620453271704	1782.028208263504	385.4767661559963	1092.251966649067	1857.112375943356	414.8612354235299	1147.620485200098	1829.892021958451	446.2813696768653	1113.202368114336	2131.650362623376	704.3390681208901	1183.951192104661	2086.636084194237	730.1993103425675	1131.955424704387	2168.999725700181	806.6393371076581	1198.308087737948	2128.262364749109	830.6894539598611	1147.230275898811	
1129	7.52	2414.906658598292	1047.671376861455	941.4531597902616	2561.849003226872	57.0754613349619	1007.603613747496	2579.96956220564	85.00735582453622	967.0916239812199	2556.007505316996	103.5775600776009	1008.941812312369	2339.698673958878	1138.608350842811	885.9182239147194	2770.968785399144	139.6902453822638	1037.354892382189	2738.393043720117	120.369460643647	926.4659003181993	2239.694253305	1107.686019353417	983.6385598117365	2593.226554380527	217.0589686361974	944.3055005177252	2552.151601665606	207.3480037049531	972.7019788222105	2565.648228251433	290.0896016108078	922.8825480298814	2523.742478900544	285.1564490842648	954.7430271685098	2463.41443365843	722.4759801143593	877.3987620339593	2409.447772463719	690.4723391820202	909.6763733696166	2400.795487321082	812.5262210715799	866.4721366208543	2348.809616689008	782.3425870200904	897.5872753937655	2404.723925641652	1037.588110124479	1149.569959185194	1759.7296507325	201.0005619646705	1075.905443444213	1663.277284278965	373.1237114760993	1043.014018432676	1678.056325442277	350.3204983964457	1091.146375037293	1710.164032310904	375.1486348520947	1052.872637538968	2370.179370783247	1143.060607176344	1182.295934820946	1731.143632819842	158.8736353023559	1020.367091344989	1697.381322904631	184.4785034956337	1126.732710902347	2240.095984212801	1115.106382872913	1096.153053967793	1799.182221542329	367.0899171607994	1127.156274146154	1773.880572477717	401.6578542494648	1091.77078886735	1850.222598623785	427.4580335786613	1147.098080096114	1824.631416968894	460.0871624440293	1112.652580716328	2132.921458242683	704.9318026646905	1184.430426896693	2087.583762645898	730.9334871065522	1132.782265713947	2170.217982691572	807.1728102352014	1199.067338086616	2129.055688797112	831.4104612295174	1148.370463557856	
